# xmcd
#
# Track frame offsets: 
#        150
#        16757
#        30460
#        39647
#        52012
#        71417
#        85220
#        96687
#        119280
#        135632
#        150850
#        171215
#
# Disc length: 2431 seconds
#
# Revision: 2
# Processed by: cddbd v1.4PL0 Copyright (c) Steve Scherf et al.
# Submitted via: ExactAudioCopy v0.95a2
#
DISCID=95097d0c
DTITLE=BR5-49 - Coast To Coast Live
DYEAR=2000
DGENRE=Country
TTITLE0=Tell Me Mama
TTITLE1=Even If It's Wrong
TTITLE2=Sweet Sweet Girl
TTITLE3=Pourin' Pain
TTITLE4=Uneasy Rider
TTITLE5=Better Than This
TTITLE6=Waitin' For The Axe
TTITLE7=Brain Cloudy Blues
TTITLE8=Big Mouth Blues
TTITLE9=Six Days On The Road
TTITLE10=Cracker Jack
TTITLE11=You're A Hum-Dinger [bonus track]
EXTD=
EXTT0=
EXTT1=
EXTT2=
EXTT3=
EXTT4=
EXTT5=
EXTT6=
EXTT7=
EXTT8=
EXTT9=
EXTT10=
EXTT11=(Bonus Track)
PLAYORDER=
